<?xml version="1.0" encoding="UTF-8"?>
<svg width="200px" height="26px" viewBox="0 0 200 26" version="1.1" xmlns="http://www.w3.org/2000/svg" xmlns:xlink="http://www.w3.org/1999/xlink">
    <title>Hikvision%20Logo-R备份</title>
    <g id="搜索" stroke="none" stroke-width="1" fill="none" fill-rule="evenodd">
        <g id="04-搜索结果" transform="translate(-55.000000, -134.000000)" fill-rule="nonzero">
            <g id="Hikvision%20Logo-R备份" transform="translate(55.000000, 134.000000)">
                <g id="分组">
                    <path d="M111.083817,11.7525986 C107.647175,7.28619945 110.425299,0.329319749 116.701803,0.246989812 L129.460596,0.246989812 L128.308189,3.35494495 L121.558375,3.35494495 C120.241339,3.35494495 119.294719,3.35494495 117.99826,3.35494495 C116.290229,3.37552742 115.32303,5.47494082 116.290229,6.75105486 C117.874788,9.20037052 120.591176,10.9087167 122.27863,13.4197797 C125.962217,18.3801585 122.237473,24.8430586 116.74296,24.8430586 L102.728866,24.8430586 L103.881273,21.7351034 L111.495392,21.7351034 C112.812429,21.7351034 113.656156,21.7351034 114.932034,21.7351034 C116.640066,21.714521 117.586686,19.6151075 116.701803,18.359576 C115.302451,16.0749203 112.812429,13.8725944 111.083817,11.7525986 L111.083817,11.7525986 Z M98.1398156,24.8842235 C95.6703725,24.8842235 93.6330805,24.8842235 91.1842161,24.8842235 L100.259422,0.267572296 L107.215023,0.267572296 L98.1398156,24.8842235 L98.1398156,24.8842235 Z M132.40335,24.8842235 C129.933906,24.8842235 127.896615,24.8842235 125.427171,24.8842235 L134.502377,0.267572296 L141.457977,0.267572296 L132.40335,24.8842235 L132.40335,24.8842235 Z M142.939644,7.71843162 C145.36793,2.59339302 150.471448,-0.123494906 155.204549,0.0205824843 L157.036052,0.0205824843 L157.036052,0.0205824843 L159.526075,0.0205824843 C163.168505,0.185242359 165.370426,3.19028506 165.576212,5.68076567 C165.617371,6.27765771 165.596791,6.85396727 165.535055,7.28619945 C165.473319,7.57435422 165.411583,7.84192652 165.349847,8.1300813 C164.588435,11.2997839 163.436028,14.5106514 161.933783,17.4127817 C159.505496,22.5378203 154.401979,25.2547082 149.668879,25.1106308 L147.837374,25.1106308 L147.816796,25.1106308 L145.347352,25.1106308 C141.704922,24.945971 139.503001,21.9409283 139.317793,19.4504476 C139.276636,18.8535556 139.276636,18.2978286 139.35895,17.8450139 C139.420686,17.5774416 139.482422,17.2892868 139.544158,17.001132 C140.264413,13.8314295 141.41682,10.6205619 142.939644,7.71843162 L142.939644,7.71843162 Z M156.110012,2.57281054 L156.110012,2.57281054 C153.537674,2.65514048 151.37691,4.11649686 150.450869,6.52464752 L145.841241,19.0593805 C145.717769,19.3475353 145.656033,19.676855 145.676611,20.0061748 C145.676611,20.0061748 145.676611,20.0061748 145.676611,20.0061748 C145.676611,21.3440363 146.726125,22.4554904 148.022582,22.5584028 L148.70168,22.5584028 C151.274017,22.4760729 153.43478,21.0147165 154.360822,18.6065658 L158.949872,6.07183287 C159.073344,5.78367809 159.13508,5.45435835 159.114502,5.12503859 C159.114502,5.12503859 159.114502,5.12503859 159.114502,5.12503859 C159.114502,3.78717712 158.064987,2.67572296 156.747951,2.57281054 L156.110012,2.57281054 L156.110012,2.57281054 Z M82.0061159,17.1863744 L93.3244005,0.267572296 L97.4195615,0.267572296 L81.5945419,23.8550993 L81.5945419,23.8550993 C81.1829679,24.4725739 80.5038709,24.863641 79.7218803,24.904806 L79.5778294,24.904806 C79.5572507,24.904806 79.5160933,24.904806 79.4955146,24.904806 C79.4955146,24.904806 79.5160933,24.904806 79.5160933,24.904806 L79.2691489,24.904806 L76.8408624,24.904806 L75.6472978,24.904806 L73.7129002,0.28815478 L80.6685005,0.28815478 L82.0061159,17.1863744 L82.0061159,17.1863744 Z M172.90223,8.21241124 L172.881651,7.90367397 L166.605148,24.863641 L163.024454,24.863641 L172.140818,0.246989812 L176.688711,0.246989812 L183.253316,16.8776372 L189.406346,0.246989812 L193.007618,0.246989812 L183.891255,24.863641 L180.598664,24.863641 C179.693201,24.822476 178.91121,24.2461665 178.561372,23.4434496 L172.90223,8.21241124 L172.90223,8.21241124 Z" id="形状" fill="#6D6E71"></path>
                    <path d="M35.8480939,24.8842235 C33.3786499,24.8842235 30.9092061,24.8842235 28.4397621,24.8842235 L37.5355471,0.267572296 L37.7413342,0.267572296 L44.7175131,0.267572296 L44.9233001,0.267572296 L35.8480939,24.8842235 L35.8480939,24.8842235 Z M13.0468952,9.7355151 L21.8545784,9.7355151 L25.3529573,0.246989812 L32.7407102,0.246989812 L24.2211288,23.3611197 L24.2211288,23.3611197 C24.2211288,23.3611197 24.2211288,23.3817022 24.2005501,23.3817022 C23.8507122,24.2461665 23.0275643,24.8430586 22.0397867,24.863641 C20.105389,24.863641 18.19157,24.863641 16.2571722,24.863641 L20.5992778,13.09046 L11.8121732,13.09046 L7.47006777,24.863641 C5.00062388,24.863641 2.55175869,24.863641 0.0823147964,24.863641 L9.15752107,0.246989812 L16.5452741,0.246989812 L13.0468952,9.7355151 L13.0468952,9.7355151 Z M53.8544555,9.50910778 L65.9135731,0.246989812 L71.4286646,0.246989812 L59.1020238,9.71493255 L66.9219295,24.863641 L60.6454262,24.863641 C60.6660049,24.863641 60.6865836,24.863641 60.7071623,24.8430586 C59.7399635,24.904806 58.8550794,24.3490789 58.4435054,23.5257796 C58.4435054,23.5257796 58.4435054,23.5051971 58.4229268,23.5051971 L58.4229268,23.5257796 L53.5251963,14.0166718 L51.6731134,15.4368632 L48.1953133,24.8842235 C45.7258693,24.8842235 43.2564255,24.8842235 40.8075603,24.8842235 L49.8827666,0.267572296 L57.2705195,0.267572296 L53.8544555,9.50910778 L53.8544555,9.50910778 Z" id="形状" fill="#D71820"></path>
                </g>
                <path d="M195.703429,4.34290419 L195.703429,1.21436657 L197.082202,1.21436657 C197.370303,1.21436657 197.57609,1.23494906 197.720141,1.29669651 C197.864192,1.35844396 197.987664,1.46135638 198.069978,1.58485129 C198.152294,1.72892868 198.193451,1.89358855 198.193451,2.05824843 C198.193451,2.28465576 198.131715,2.46989812 197.987664,2.61397551 C197.843613,2.75805289 197.617248,2.86096532 197.329146,2.90213029 C197.432039,2.96387774 197.514354,3.00504271 197.57609,3.06679016 C197.699562,3.16970259 197.802456,3.31377997 197.925928,3.47843985 L198.460974,4.3223217 L197.946506,4.3223217 L197.534932,3.66368221 C197.41146,3.47843985 197.308567,3.33436246 197.226252,3.23145004 C197.143938,3.12853761 197.082202,3.06679016 197.020465,3.02562519 C196.958729,2.98446023 196.896993,2.96387774 196.835257,2.94329525 C196.794099,2.94329525 196.711785,2.92271278 196.608892,2.92271278 L196.115003,2.92271278 L196.115003,4.3223217 L195.703429,4.3223217 L195.703429,4.34290419 Z M196.115003,2.59339302 L196.999886,2.59339302 C197.185095,2.59339302 197.329146,2.57281054 197.452618,2.53164557 C197.555511,2.4904806 197.637826,2.42873315 197.699562,2.34640321 C197.761298,2.26407327 197.781877,2.16116085 197.781877,2.05824843 C197.781877,1.91417104 197.720141,1.79067613 197.617248,1.68776372 C197.514354,1.58485129 197.349724,1.54368632 197.10278,1.54368632 L196.115003,1.54368632 L196.115003,2.59339302 Z" id="形状" fill="#6D6E71"></path>
                <path d="M196.999886,0.164659874 C195.538798,0.164659874 194.345234,1.35844396 194.345234,2.81980035 C194.345234,4.28115674 195.538798,5.47494082 196.999886,5.47494082 C198.460974,5.47494082 199.654539,4.28115674 199.654539,2.81980035 C199.654539,1.35844396 198.460974,0.164659874 196.999886,0.164659874 Z M196.999886,5.16620356 C195.703429,5.16620356 194.653915,4.11649686 194.653915,2.81980035 C194.653915,1.52310384 195.703429,0.473397139 196.999886,0.473397139 C198.296344,0.473397139 199.345858,1.52310384 199.345858,2.81980035 C199.345858,4.11649686 198.296344,5.16620356 196.999886,5.16620356 Z" id="形状" fill="#6D6E71"></path>
            </g>
        </g>
    </g>
</svg>