<?xml version="1.0" encoding="UTF-8" standalone="no"?>
<!-- Created with Inkscape (http://www.inkscape.org/) -->

<svg
   width="158.75mm"
   height="21.166666mm"
   viewBox="0 0 158.75 21.166666"
   version="1.1"
   id="svg1"
   xml:space="preserve"
   inkscape:export-filename="hiklogo1.jpg"
   inkscape:export-xdpi="96"
   inkscape:export-ydpi="96"
   inkscape:version="1.3 (0e150ed6c4, 2023-07-21)"
   sodipodi:docname="logo.svg"
   xmlns:inkscape="http://www.inkscape.org/namespaces/inkscape"
   xmlns:sodipodi="http://sodipodi.sourceforge.net/DTD/sodipodi-0.dtd"
   xmlns="http://www.w3.org/2000/svg"
   xmlns:svg="http://www.w3.org/2000/svg"><sodipodi:namedview
     id="namedview1"
     pagecolor="#ffffff"
     bordercolor="#000000"
     borderopacity="0.25"
     inkscape:showpageshadow="2"
     inkscape:pageopacity="0.0"
     inkscape:pagecheckerboard="0"
     inkscape:deskcolor="#d1d1d1"
     inkscape:document-units="mm"
     inkscape:export-bgcolor="#fffffff8"
     inkscape:zoom="1.3845821"
     inkscape:cx="299.72942"
     inkscape:cy="40.084296"
     inkscape:window-width="2560"
     inkscape:window-height="1334"
     inkscape:window-x="-11"
     inkscape:window-y="-11"
     inkscape:window-maximized="1"
     inkscape:current-layer="layer1" /><defs
     id="defs1"><clipPath
       clipPathUnits="userSpaceOnUse"
       id="clipPath10"><path
         style="fill:#ffffff;stroke-width:0.264583"
         d="m 130.50539,131.40995 7.14208,-19.25257 h 3.41578 l 5.11173,13.01818 0.5255,0.0717 4.75343,-13.01818 2.53198,-0.11944 -7.18986,19.37201 -2.98582,-0.0239 c -0.486,-0.22524 -0.96281,-0.4612 -1.0749,-1.12266 l -4.6101,-12.15827 -5.04007,13.49591 -2.69919,-0.1672 z"
         id="path11"
         sodipodi:nodetypes="cccccccccccccc" /></clipPath></defs><g
     inkscape:label="Layer 1"
     inkscape:groupmode="layer"
     id="layer1"
     transform="translate(-132.68341,-103.64503)"><path
       style="fill:#954b51;stroke:none"
       d="m 288.59728,104.39305 c -2.48762,0.0337 -2.13772,3.83373 0.26276,3.66068 2.37361,-0.17112 2.0538,-3.69212 -0.26276,-3.66068 m -148.43205,0.0457 -7.14375,19.57916 h 6.08541 c 0.47927,-2.02242 1.79516,-7.82239 3.55044,-8.98848 1.44617,-0.96074 5.06125,-0.27193 6.76831,-0.27193 l -3.43958,9.26041 c 1.58521,0 4.40733,0.54293 5.71672,-0.50099 1.28544,-1.02484 1.69166,-3.57003 2.23487,-5.05526 1.63029,-4.45752 4.31013,-9.33026 5.01299,-14.02291 l -5.63505,0.27193 -3.20705,7.12905 -6.50373,0.27193 2.64583,-7.67291 h -6.08541 m 15.61041,19.57916 h 5.82084 l 7.14375,-19.57916 -5.70998,0.27193 -2.07502,4.75515 -5.17959,14.55208 m 9.78959,0 c 1.42481,0 4.46047,0.57863 5.64914,-0.27193 2.60948,-1.86725 1.31338,-6.61531 4.66961,-8.19473 0.60678,2.10627 2.64147,7.40608 4.77393,8.27027 1.54291,0.62527 3.89797,0.19639 5.54482,0.19639 l -4.16883,-8.46666 -1.47582,-3.4157 2.46965,-2.31286 6.61458,-5.38394 -4.23333,0.226 -9.525,6.91775 2.64583,-7.14375 -5.64914,0.27193 -2.13586,5.01973 -5.17958,14.2875 m 26.19375,-19.57916 c 0.0134,4.84843 0.84882,9.70759 1.06874,14.55208 0.0476,1.04849 -0.13569,4.34277 0.89807,4.86744 2.6881,1.36427 4.62411,-1.12778 5.88249,-3.01536 3.61639,-5.42458 7.7656,-10.70933 10.93611,-16.40416 -6.53895,0 -8.14263,9.29515 -12.43541,13.22916 l -0.79375,-13.22916 h -5.55625 m 14.02291,19.57916 5.15673,-0.27193 2.16729,-5.01973 5.1114,-14.2875 -5.18081,0.27193 -2.07522,4.75515 -5.17939,14.55208 m 8.99584,0 c 3.88546,0 8.982,0.86638 12.7,-0.32378 2.94985,-0.94428 4.58919,-4.13407 3.64496,-7.08455 -0.7444,-2.32608 -2.82551,-3.82492 -4.41401,-5.55625 -0.66761,-0.72763 -1.7257,-1.81597 -1.27167,-2.89878 0.60723,-1.44819 2.33955,-1.33406 3.62822,-1.33455 2.98384,-10e-4 5.8091,0.89816 6.87916,-2.38125 -5.11087,0 -18.07679,-1.71113 -15.44158,7.40833 0.6539,2.26287 2.78278,3.80176 4.20537,5.55625 0.61445,0.75781 1.55283,1.85427 1.10691,2.89878 -0.61743,1.44627 -2.33328,1.33405 -3.62903,1.33455 -2.94213,10e-4 -6.47191,-1.0385 -7.40833,2.38125 m 24.87083,-19.57916 -6.87917,19.57916 5.15673,-0.27193 2.13953,-5.01973 5.13916,-14.2875 h -5.55625 m 14.02292,0.13698 c -5.32924,1.13699 -7.89638,6.20286 -9.33411,10.97552 -0.69257,2.29901 -1.27744,4.84469 0.44158,6.85426 1.96061,2.292 6.95635,2.07104 9.68628,1.47562 5.32467,-1.16135 7.78018,-6.22035 9.25368,-10.97572 0.75104,-2.4238 1.36844,-5.04661 -0.6096,-7.0874 -1.95456,-2.01655 -6.85901,-1.79246 -9.43783,-1.24228 m 8.73125,19.44218 2.73872,-0.27193 1.64711,-3.69682 3.55167,-9.26041 c 1.08357,3.20295 2.35097,6.35314 3.52389,9.525 0.4279,1.15712 0.80453,2.97514 2.06012,3.50777 2.96382,1.25728 3.69864,-1.33827 4.52099,-3.50777 1.95463,-5.15662 4.49889,-10.51103 5.77,-15.875 l -2.53499,0.27193 -1.71162,3.69682 -3.42631,8.99583 c -1.44694,-3.09332 -2.59545,-6.35369 -3.86301,-9.525 -0.38822,-0.97131 -0.70464,-2.81443 -1.75265,-3.27993 -2.90843,-1.29189 -3.8628,1.40593 -4.61224,3.54451 -1.86531,5.32281 -3.88177,10.61289 -5.91168,15.875 m 25.70377,-19.14983 c 1.62474,-0.6277 2.80755,1.86046 1.2233,2.63665 -1.69886,0.83234 -2.88116,-1.99616 -1.2233,-2.63665 m -0.0392,0.36442 v 1.85208 h 0.26458 v -0.79375 l 0.79375,0.79375 h 0.26459 v -1.85208 h -1.32292 m 1.05833,0.79375 -0.79375,-0.52917 0.79375,0.52917 m -33.07291,0.35175 c 1.50209,-0.26813 3.30188,0.19452 3.3275,2.0297 0.0189,1.35575 -0.89123,2.98125 -1.36334,4.23313 -1.27029,3.36836 -2.09005,8.98973 -6.46208,9.47498 -1.52765,0.16956 -2.99135,-0.61724 -2.81263,-2.33123 0.14077,-1.34987 0.84331,-2.708 1.30944,-3.96875 1.16265,-3.14461 2.06075,-8.73443 6.00111,-9.43783 z"
       id="path12" /></g></svg>
