<?xml version="1.0" encoding="UTF-8" standalone="no"?>
<!-- Created with Inkscape (http://www.inkscape.org/) -->

<svg
   width="104.52762mm"
   height="26.841301mm"
   viewBox="0 0 104.52762 26.8413"
   version="1.1"
   id="svg1"
   xml:space="preserve"
   inkscape:version="1.3 (0e150ed6c4, 2023-07-21)"
   sodipodi:docname="unvvv.svg"
   xmlns:inkscape="http://www.inkscape.org/namespaces/inkscape"
   xmlns:sodipodi="http://sodipodi.sourceforge.net/DTD/sodipodi-0.dtd"
   xmlns="http://www.w3.org/2000/svg"
   xmlns:svg="http://www.w3.org/2000/svg"><sodipodi:namedview
     id="namedview1"
     pagecolor="#ffffff"
     bordercolor="#000000"
     borderopacity="0.25"
     inkscape:showpageshadow="2"
     inkscape:pageopacity="0.0"
     inkscape:pagecheckerboard="0"
     inkscape:deskcolor="#d1d1d1"
     inkscape:document-units="mm"
     inkscape:zoom="1.3845821"
     inkscape:cx="67.16828"
     inkscape:cy="262.53408"
     inkscape:window-width="2560"
     inkscape:window-height="1334"
     inkscape:window-x="-11"
     inkscape:window-y="-11"
     inkscape:window-maximized="1"
     inkscape:current-layer="layer1" /><defs
     id="defs1"><clipPath
       clipPathUnits="userSpaceOnUse"
       id="clipPath1"><rect
         style="fill:#151822;stroke-width:0.264583"
         id="rect2"
         width="104.52762"
         height="26.841303"
         x="79.447464"
         y="73.033325" /></clipPath></defs><g
     inkscape:label="Layer 1"
     inkscape:groupmode="layer"
     id="layer1"
     transform="translate(-41.763172,-75.517531)"><path
       style="fill:#ff0000"
       d="m 53.007658,182.8458 c -9.776217,-1.3328 -16.153204,-5.29644 -19.532919,-12.14078 -0.724276,-1.46675 -1.639015,-3.85744 -2.032753,-5.31265 l -0.715887,-2.64584 -0.0854,-25.66458 -0.0854,-25.66458 -3.142682,-1.98438 -3.142681,-1.98437 2.825433,-0.16478 c 1.553989,-0.0906 6.303684,-0.17992 10.554879,-0.19844 l 7.729446,-0.0337 0.08251,26.52448 c 0.07582,24.37669 0.12012,26.65128 0.547036,28.09043 1.370637,4.62046 4.012683,7.22049 8.668999,8.53113 1.363163,0.38369 2.646565,0.4766 6.463401,0.4679 4.836327,-0.011 7.697233,-0.36941 10.914063,-1.36721 l 1.389062,-0.43086 v -30.7756 -30.77564 h 7.540625 7.540625 v 35.31741 35.31742 l -1.256771,0.62906 c -2.419318,1.21094 -7.587025,2.68593 -12.168018,3.47304 -6.867307,1.17995 -16.671955,1.53166 -22.093563,0.79254 z m 54.502212,-1.11958 -0.72761,-0.0971 V 146.2228 110.81648 l 3.64023,-1.21133 c 7.45331,-2.48018 13.65595,-3.54793 22.03332,-3.79292 5.86922,-0.17164 9.89189,0.11483 13.74937,0.97915 10.01015,2.24291 16.15659,7.4712 18.52676,15.75926 1.01545,3.55083 1.08055,5.69616 0.99899,32.91988 l -0.0789,26.32604 h -7.40833 -7.40833 l -0.1323,-26.59062 c -0.13076,-26.28295 -0.13882,-26.60965 -0.69691,-28.2348 -1.51487,-4.41131 -4.55208,-7.15977 -9.35725,-8.46767 -1.3396,-0.36462 -2.6849,-0.46359 -6.08542,-0.44773 -4.6201,0.0216 -8.03395,0.45896 -11.18971,1.43368 l -1.77487,0.5482 -8e-5,30.87947 -9e-5,30.87947 -6.68064,0.0134 c -3.67436,0.007 -7.00807,-0.0303 -7.40825,-0.0837 z m 95.14562,-0.005 -1.89032,-0.0786 -1.19656,-3.36241 c -0.65811,-1.84933 -5.20505,-14.55429 -10.10432,-28.23325 -4.89927,-13.67895 -9.96489,-27.83763 -11.25693,-31.46372 -1.29205,-3.62608 -2.50243,-6.69182 -2.68974,-6.81274 -0.18731,-0.12092 -1.88573,-1.14272 -3.77427,-2.27066 l -3.4337,-2.05079 11.09045,-0.0691 c 6.09974,-0.038 11.17646,0.0215 11.2816,0.13229 0.10513,0.11076 1.08587,3.05888 2.1794,6.55138 1.09354,3.4925 4.84381,15.45828 8.33394,26.59063 5.55948,17.73288 7.98097,26.04426 7.98097,27.39343 0,0.2133 0.0893,0.38733 0.19844,0.38675 0.10914,-5.9e-4 0.72062,-2.17348 1.35883,-4.82865 0.96107,-3.99831 6.1159,-20.65424 16.15163,-52.18799 l 1.26307,-3.96875 8.37339,-0.0699 c 4.60536,-0.0384 8.37339,-0.0143 8.37339,0.0537 0,0.068 -0.1153,0.39705 -0.25622,0.73132 -0.14093,0.33427 -1.32229,3.58433 -2.62525,7.22235 -2.38752,6.66622 -16.77529,46.6417 -18.99788,52.78437 -0.65817,1.81901 -1.95809,5.43193 -2.8887,8.02871 -0.93062,2.59677 -1.7986,4.91183 -1.92885,5.14457 -0.20694,0.36979 -1.08293,0.42522 -6.94444,0.4394 -3.68919,0.009 -7.55826,-0.0191 -8.59793,-0.0624 z M 87.420153,93.624138 c 7.165483,-8.02592 17.014537,-14.49258 27.035027,-17.75058 9.31708,-3.0293 20.70379,-3.68128 30.29479,-1.73462 11.08393,2.24968 21.59247,7.73744 30.15561,15.74783 1.96973,1.84259 5.02472,5.22388 4.86451,5.38409 -0.0591,0.0591 -0.68546,-0.25222 -1.39184,-0.69189 -1.83841,-1.14425 -8.07865,-4.24349 -10.87411,-5.40066 -7.87058,-3.258 -17.07073,-5.57494 -25.79688,-6.49661 -1.52797,-0.16138 -5.45703,-0.29342 -8.73125,-0.29342 -6.28043,0 -9.41051,0.23958 -14.81667,1.13408 -10.15876,1.68087 -20.551511,5.35751 -29.551602,10.45446 -1.391949,0.78829 -2.587345,1.43326 -2.656436,1.43326 -0.06909,0 0.591891,-0.80368 1.468851,-1.78594 z"
       id="path1"
       clip-path="url(#clipPath1)"
       transform="translate(-37.684292,2.484203)" /></g></svg>
