<?xml version="1.0" encoding="UTF-8" standalone="no"?>
<!-- Created with Inkscape (http://www.inkscape.org/) -->

<svg
   width="149.72212mm"
   height="64.402534mm"
   viewBox="0 0 149.72212 64.402533"
   version="1.1"
   id="svg1"
   xml:space="preserve"
   inkscape:version="1.3 (0e150ed6c4, 2023-07-21)"
   sodipodi:docname="magvi.svg"
   xmlns:inkscape="http://www.inkscape.org/namespaces/inkscape"
   xmlns:sodipodi="http://sodipodi.sourceforge.net/DTD/sodipodi-0.dtd"
   xmlns="http://www.w3.org/2000/svg"
   xmlns:svg="http://www.w3.org/2000/svg"><sodipodi:namedview
     id="namedview1"
     pagecolor="#ffffff"
     bordercolor="#000000"
     borderopacity="0.25"
     inkscape:showpageshadow="2"
     inkscape:pageopacity="0.0"
     inkscape:pagecheckerboard="0"
     inkscape:deskcolor="#d1d1d1"
     inkscape:document-units="mm"
     inkscape:zoom="0.97904742"
     inkscape:cx="251.26464"
     inkscape:cy="213.98351"
     inkscape:window-width="2560"
     inkscape:window-height="1334"
     inkscape:window-x="-11"
     inkscape:window-y="-11"
     inkscape:window-maximized="1"
     inkscape:current-layer="layer1" /><defs
     id="defs1"><clipPath
       clipPathUnits="userSpaceOnUse"
       id="clipPath1"><rect
         style="fill:#ffffff;stroke-width:0.264583"
         id="rect2"
         width="223.76343"
         height="52.697906"
         x="-9.1321535"
         y="84.557144" /></clipPath><clipPath
       clipPathUnits="userSpaceOnUse"
       id="clipPath4"><rect
         style="fill:#ffffff;stroke-width:0.264583"
         id="rect4"
         width="248.89627"
         height="77.290268"
         x="-36.697212"
         y="129.95842" /></clipPath><clipPath
       clipPathUnits="userSpaceOnUse"
       id="clipPath5"><rect
         style="fill:#aa0000;stroke-width:0.264583"
         id="rect6"
         width="217.81802"
         height="31.078253"
         x="-21.563454"
         y="157.25323" /></clipPath></defs><g
     inkscape:label="Layer 1"
     inkscape:groupmode="layer"
     id="layer1"
     transform="translate(-38.372631,-91.811752)"><path
       style="fill:#1259a4;stroke:none"
       d="m 38.918105,92.086977 v 47.613843 h 7.15583 v -20.64184 h 2.75225 l 3.57792,20.64184 6.16515,-0.28287 1.24382,-5.22162 2.49911,-15.13735 h 3.02747 v 20.64184 h 7.15583 V 92.086977 h -10.45853 l -4.67881,26.972003 h -3.3027 l -4.67881,-26.972003 h -10.45853 m 38.2562,0 v 47.613843 h 24.494985 v -7.15584 H 89.284185 l -4.51275,-0.44129 -0.44129,-3.41185 v -9.63286 h 13.76122 v -7.43106 h -13.76122 v -8.53196 l 0.44129,-3.411853 4.51275,-0.441293 H 101.66929 V 92.086977 H 77.174305 m 29.449025,47.613843 h 17.61437 c 2.05745,0 5.14053,0.57376 6.7723,-0.97921 1.84524,-1.75616 1.20921,-5.2655 1.20921,-7.55275 v -19.26572 h -11.83466 v 7.15584 h 4.67882 v 9.63286 l -0.44129,3.41185 -3.13663,0.44129 h -7.70628 V 99.242814 h 18.44004 v -7.155837 h -17.61437 c -2.10391,0 -5.14108,-0.575189 -6.84387,0.934191 -2.40932,2.135656 -1.13764,9.023102 -1.13764,12.001362 v 34.67829 m 30.27469,-47.613843 6.21337,34.953513 1.56173,9.08241 0.92186,3.29505 2.86247,0.28287 h 7.43106 l 5.5733,-31.92605 2.68344,-15.687793 h -7.15584 l -4.67881,26.972003 -3.29909,-0.63794 -1.49356,-7.6188 -3.18887,-18.715263 h -7.43106 m 32.20127,0 v 47.613843 h 7.15584 V 92.086977 h -7.15584 m 12.10988,0 V 139.70082 H 188.365 V 92.086977 h -7.15583 M 95.272225,145.49327 c -0.76056,0.61542 0.2024,1.88682 1.00173,1.33981 0.8732,-0.59757 -0.15662,-2.02363 -1.00173,-1.33981 m 76.984715,0.0108 c -0.88214,0.55563 0.003,1.85915 0.88216,1.32898 0.92734,-0.55954 -0.0155,-1.87486 -0.88216,-1.32898 M 38.918105,155.66384 h 1.92657 c 0.83436,-3.59414 4.3949,-3.59414 5.22926,0 h 1.92657 c -0.84411,-2.5942 -1.82582,-5.1461 -2.76689,-7.70629 -0.2911,-0.79194 -0.63493,-2.23265 -1.65454,-2.34875 -1.11056,-0.12645 -1.52698,1.26827 -1.81401,2.07353 -0.94829,2.66039 -1.97288,5.29521 -2.84696,7.98151 m 81.741675,-5.22927 c -4.39706,2.16902 0.61241,7.80111 4.12837,4.40359 h 0.27522 l 2.75225,0.82568 c -1.31664,-1.9321 -0.87523,-2.51847 -0.55045,-4.67882 l -1.37613,-0.27522 -0.55044,1.65134 -1.92658,-1.92657 c 6.19323,-2.15734 -2.93509,-8.27436 -3.26085,-2.47702 -0.0475,0.84582 0.29582,1.67274 0.50861,2.47702 m 13.21077,-4.95404 v 10.18331 h 1.65135 v -3.85315 c 2.92727,0.22131 2.67969,3.81643 5.77972,3.85315 l -2.2018,-4.12837 c 1.93875,-1.06326 2.61725,-3.86738 0.52072,-5.26834 -1.53504,-1.02575 -3.99339,-0.7866 -5.74999,-0.7866 m 16.23825,10.18331 c 0.87912,-0.004 1.45066,0.11088 1.65135,-0.82568 6.42013,5.12479 6.98861,-10.41735 0,-5.50449 v -3.85314 c -2.88249,0.22459 -1.65135,7.88309 -1.65135,10.18331 M 57.633365,146.3062 v 2.2018 h -1.1009 v 1.37612 h 1.1009 c 0,3.03163 -0.58921,6.0412 3.3027,6.05494 v -1.65134 c -2.1929,-0.2309 -1.65135,-2.72882 -1.65135,-4.4036 h 1.92657 V 148.508 h -1.92657 v -2.2018 h -1.65135 m 32.47649,0 v 2.2018 h -1.1009 v 1.37612 h 1.1009 c 0,1.45761 -0.39622,3.62196 0.3245,4.93791 0.93217,1.70204 3.10658,1.35037 3.25342,-0.53431 -2.45955,-0.0401 -1.92657,-2.5817 -1.92657,-4.4036 h 1.92657 V 148.508 h -1.92657 v -2.2018 h -1.65135 m 76.787635,0 v 2.2018 h -1.10089 v 1.37612 h 1.10089 c 0,3.21563 -0.42521,6.04345 3.57792,6.05494 v -1.65134 c -2.45957,-0.0401 -1.92657,-2.5817 -1.92657,-4.4036 h 1.92657 V 148.508 h -1.92657 v -2.2018 h -1.65135 m -44.86159,3.02747 c -0.9358,-4.1326 3.86443,-0.79911 0,0 m 13.486,1.1009 v -3.30269 c 4.22743,0.003 4.2118,3.21529 0,3.30269 m -91.924985,-2.47702 1.1009,3.57792 h -2.47702 l 1.37612,-3.57792 m 20.91728,0.42983 c -4.17713,1.05002 -2.91719,8.47403 1.65092,7.44295 4.23808,-0.95659 2.93888,-8.59671 -1.65092,-7.44295 m 7.70607,0.94629 h -0.27523 c -0.20068,-0.93655 -0.77223,-0.82196 -1.65134,-0.82567 v 7.15584 h 1.65134 c 0,-1.27276 -0.68248,-5.60473 1.36636,-5.60473 2.00256,0 1.38589,4.37581 1.38589,5.60473 h 1.37612 c 0,-1.05483 -0.43369,-6.42237 1.88707,-5.45607 1.48574,0.61862 0.86518,4.17264 0.86518,5.45607 h 1.65134 c 0,-2.66563 -0.18874,-10.88065 -4.67881,-6.05494 -0.87286,-1.37783 -2.59381,-1.7585 -3.57792,-0.27523 m 10.18331,0.55045 c 1.69836,0.59649 3.34031,-0.82863 3.85314,1.65135 -0.81121,5.4e-4 -1.68796,-0.0718 -2.47596,0.15757 -4.25288,1.23783 0.16974,6.46489 2.20073,3.14512 h 0.27523 v 0.82568 h 1.65135 c 0,-1.75251 0.49939,-4.44323 -0.36272,-6.02521 -1.10615,-2.02976 -4.18718,-1.57919 -5.14177,0.24549 m 18.440255,-1.50354 c -4.185885,0.97078 -2.926675,8.48297 1.65092,7.44975 4.18314,-0.94419 2.92787,-8.51165 -1.65092,-7.44975 m 7.43085,0.95309 c -0.2007,-0.93654 -0.77224,-0.82196 -1.65135,-0.82567 v 7.15584 h 1.65135 c 0,-1.36534 -0.56658,-4.38572 0.63794,-5.33312 2.60618,-2.04985 2.38953,4.30179 2.38953,5.33312 h 1.65134 c 0,-2.86814 -0.0143,-10.05299 -4.67881,-6.33017 m 36.32963,-0.95012 c -4.44057,0.97014 -3.01947,8.50995 1.65029,7.44678 4.15577,-0.94614 2.83701,-8.42712 -1.65029,-7.44678 m 16.23824,0 c -4.49156,0.97579 -3.01723,8.5938 1.65029,7.43999 4.15589,-1.02735 2.77682,-8.40177 -1.65029,-7.43999 m 20.64184,5.62894 c -1.18764,-0.34739 -2.23112,0.4697 -3.29738,0.13146 -1.64963,-0.52331 -1.81216,-3.22286 -0.25059,-3.96103 1.13007,-0.5342 2.25268,0.55874 3.54797,-0.0236 -2.26651,-3.97558 -6.93211,-0.85933 -6.26836,3.02725 0.56028,3.28071 4.81678,3.47858 6.26836,0.82589 m 5.22927,-0.55045 c -1.27895,1.51903 -2.46018,0.26395 -4.12837,0.55045 1.62627,4.5351 8.4865,-0.13599 4.12412,-2.21114 -0.77528,-0.3688 -1.64658,-0.59537 -2.47277,-0.81633 0.97523,-1.91466 2.26999,-0.29376 3.85314,-0.82567 -1.52591,-4.08432 -7.62236,-0.35639 -4.61596,1.92806 0.89408,0.67937 2.19988,0.97345 3.23984,1.37463 M 49.101405,148.508 c 0,2.994 -0.23992,10.25647 4.67882,6.33016 0.20069,0.93656 0.77224,0.82197 1.65135,0.82568 V 148.508 h -1.65135 c 0,1.194 0.46747,6.68112 -2.13936,5.66759 -1.67975,-0.65308 -1.16334,-4.28391 -1.16334,-5.66759 h -1.37612 m 45.96249,0 v 7.15584 h 1.65135 V 148.508 h -1.65135 m 76.787635,0 v 7.15584 h 1.65135 V 148.508 h -1.65135 m -107.046185,1.5475 c 2.39838,-0.85686 3.18297,3.49717 1.05481,4.19972 -2.28541,0.75447 -3.0299,-3.49409 -1.05481,-4.19972 m 36.329425,0 c 2.37883,-0.84545 3.0401,3.51522 1.05523,4.20079 -2.374645,0.82019 -3.158185,-3.45338 -1.05523,-4.20079 m 43.77343,-0.0467 c 2.47406,-0.6366 2.95761,3.6878 0.78511,4.25621 -2.37872,0.62237 -2.95076,-3.69896 -0.78511,-4.25621 m 8.25674,0 c 2.47406,-0.6366 2.95759,3.68781 0.78511,4.25621 -2.37873,0.62237 -2.95075,-3.69897 -0.78511,-4.25621 m 7.96771,0 c 2.48875,-0.62319 2.97886,3.68586 0.79891,4.25621 -2.3649,0.61875 -2.9803,-3.70999 -0.79891,-4.25621 m -37.17018,4.00371 c -4.48126,1.62978 -3.27103,-4.27329 -0.62669,-1.10791 0.29789,0.35659 0.43409,0.69275 0.62669,1.10791 m -37.705755,-1.1009 c -0.64912,3.04107 -4.36151,0.0154 0,0 z"
       id="path6" /></g></svg>
