<?xml version="1.0" encoding="UTF-8" standalone="no"?>
<!-- Created with Inkscape (http://www.inkscape.org/) -->

<svg
   width="135.45718mm"
   height="37.409672mm"
   viewBox="0 0 135.45718 37.409671"
   version="1.1"
   id="svg1"
   xml:space="preserve"
   inkscape:version="1.3 (0e150ed6c4, 2023-07-21)"
   sodipodi:docname="western.svg"
   xmlns:inkscape="http://www.inkscape.org/namespaces/inkscape"
   xmlns:sodipodi="http://sodipodi.sourceforge.net/DTD/sodipodi-0.dtd"
   xmlns="http://www.w3.org/2000/svg"
   xmlns:svg="http://www.w3.org/2000/svg"><sodipodi:namedview
     id="namedview1"
     pagecolor="#ffffff"
     bordercolor="#000000"
     borderopacity="0.25"
     inkscape:showpageshadow="2"
     inkscape:pageopacity="0.0"
     inkscape:pagecheckerboard="0"
     inkscape:deskcolor="#d1d1d1"
     inkscape:document-units="mm"
     inkscape:zoom="0.97904742"
     inkscape:cx="224.70822"
     inkscape:cy="159.84925"
     inkscape:window-width="2560"
     inkscape:window-height="1334"
     inkscape:window-x="-11"
     inkscape:window-y="-11"
     inkscape:window-maximized="1"
     inkscape:current-layer="layer1" /><defs
     id="defs1"><clipPath
       clipPathUnits="userSpaceOnUse"
       id="clipPath1"><rect
         style="fill:#ffffff;stroke-width:0.264583"
         id="rect2"
         width="223.76343"
         height="52.697906"
         x="-9.1321535"
         y="84.557144" /></clipPath><clipPath
       clipPathUnits="userSpaceOnUse"
       id="clipPath4"><rect
         style="fill:#ffffff;stroke-width:0.264583"
         id="rect4"
         width="248.89627"
         height="77.290268"
         x="-36.697212"
         y="129.95842" /></clipPath><clipPath
       clipPathUnits="userSpaceOnUse"
       id="clipPath5"><rect
         style="fill:#aa0000;stroke-width:0.264583"
         id="rect6"
         width="217.81802"
         height="31.078253"
         x="-21.563454"
         y="157.25323" /></clipPath></defs><g
     inkscape:label="Layer 1"
     inkscape:groupmode="layer"
     id="layer1"
     transform="translate(-45.417397,-106.1269)"><path
       style="fill:#213062;stroke:none"
       d="m 47.933103,106.90981 c -2.904344,1.15772 -2.46219,4.939 -2.46219,7.46831 v 19.63439 c 0,2.51376 -0.521407,5.78022 1.690803,7.56174 2.979144,2.39914 10.210991,1.0283 13.853089,1.0283 h 31.087784 c 3.762944,0 9.646151,1.10039 13.071611,-0.64324 2.65785,-1.3529 2.06323,-4.63194 2.06323,-7.1287 v -19.63439 c 0,-2.2933 0.77484,-6.29386 -1.32057,-7.87736 -2.87284,-2.17101 -10.721213,-0.71268 -14.223321,-0.71268 H 61.423855 c -3.871087,0 -9.877773,-1.13657 -13.490752,0.30363 m 63.803877,2.55971 c 0.23222,2.84309 1.26398,11.69647 3.57004,13.48728 3.85828,2.99624 5.26328,-7.77625 5.42906,-9.80583 h 0.40905 c 0.79998,4.12512 0.68059,10.20841 5.72669,10.22625 l 3.2724,-13.9077 h -2.86335 l -1.63619,9.40815 h -0.8181 c -0.0891,-2.04323 -1.11919,-11.92529 -5.03012,-8.98773 -1.90173,1.42841 -2.43924,7.14971 -2.74183,9.39678 -1.52225,-3.58408 -0.41437,-9.75909 -5.31765,-9.8172 m 37.63258,4.0905 h -1.22715 v 2.04525 h 1.22715 c 0,4.78529 -0.7204,7.77132 4.9086,7.77195 v -2.04525 c -2.83715,-0.0543 -2.04525,-3.65717 -2.04525,-5.7267 h 2.04525 v -2.04525 h -2.04525 v -2.86335 c -1.82593,0.4442 -2.70788,0.9126 -2.86335,2.86335 m -11.04434,6.5448 c -2.29233,0.0732 -4.80079,2.23058 -5.7267,-0.8181 h 6.13575 c -0.0552,-6.57725 -8.68909,-8.31638 -9.24844,-1.22715 -0.43985,5.57461 7.95575,7.71988 8.83939,2.04525 m 6.5448,1.22715 -5.31765,-0.8181 c 1.8818,6.54218 12.15318,0.46656 6.52681,-2.74973 -1.10764,-0.63317 -2.456,-0.94788 -3.66346,-1.34077 v -0.8181 l 5.31764,0.40905 c -1.48154,-2.76515 -8.15755,-4.27586 -8.02697,0.40432 0.0762,2.72961 4.03228,2.75584 5.16363,4.91333 m 18.81629,-0.8181 c -2.46962,-0.65175 -4.96838,1.9452 -6.13575,-1.22715 h 6.13575 c -0.005,-1.74192 0.051,-3.48682 -1.32058,-4.78456 -2.53579,-2.39921 -6.75224,-0.98262 -7.51724,2.33057 -1.39557,6.04417 5.87973,9.2455 8.83782,3.68114 m 10.63529,-6.13575 c -2.98917,-3.40376 -4.07239,7.13981 -2.20781,8.57679 0.75549,0.58223 1.95295,0.32051 2.37004,-0.52583 0.82418,-1.67239 -0.22468,-3.84105 0.49364,-5.56636 1.57147,-3.77449 3.02331,1.88396 3.02558,3.2421 v 3.2724 h 2.86335 c 0,-4.83992 0.51088,-12.28709 -6.5448,-8.9991 m -9.40815,-0.8181 c 0,3.27416 -1.55404,9.67213 2.86335,9.8172 l 2.86335,-9.8172 -2.86335,1.22715 -2.86335,-1.22715 m -103.080545,1.22715 c -0.794318,4.21295 -2.093759,4.0905 -6.135747,4.0905 l 0.40905,-4.0905 h 5.726697 m 8.590045,0 0.40905,4.0905 h -6.953846 c 1.633078,-3.49741 2.793373,-4.0905 6.544796,-4.0905 m 10.635295,0 c -0.629853,4.26129 -2.778825,4.0905 -6.544797,4.0905 l 0.8181,-4.0905 h 5.726697 m -4.908598,18.81629 4.499548,-13.08959 6.953846,0.40905 -2.454299,7.77194 c 3.525895,-0.28059 12.743909,-5.16882 6.92986,-9.10451 -2.586077,-1.75059 -8.002167,-0.71268 -11.020357,-0.71268 l 1.227149,-4.0905 c 4.187149,0 10.999935,-1.29242 14.724213,0.85471 7.403973,4.26857 0.754697,14.11125 -4.497968,16.73759 -4.689543,2.34477 -11.255985,1.22399 -16.361992,1.22399 m 59.721273,-16.36199 h -3.2724 c 0.68195,-2.2403 2.474,-2.08518 3.2724,0 m 24.95204,0 h -3.2724 c 0.67686,-2.22783 2.59553,-2.22781 3.2724,0 m -99.808155,2.86335 -0.818099,5.31764 h 0.409049 c 1.473752,-4.04979 2.68849,-5.32642 6.953847,-5.31764 0.993956,0.002 2.553471,-0.22937 3.26135,0.65587 0.947195,1.1845 0.799038,4.02113 0.829148,5.47987 h 0.409049 c 0.733014,-4.96348 2.239394,-5.72669 6.953847,-5.72669 l -4.090498,13.08959 h -6.953847 l -0.818099,-10.22624 -5.886404,9.80583 -7.203189,0.42041 0.991692,-10.22624 0.891326,-3.25504 5.070828,-0.0174 m 106.446375,5.74595 c -2.26462,1.28022 -0.37103,4.54287 1.85714,3.23547 2.11114,-1.23875 0.23509,-4.41825 -1.85714,-3.23547 m -54.9061,-0.0193 v 13.9077 c 2.98641,0 6.74564,0.53654 9.36522,-1.22936 3.41653,-2.30314 3.41653,-9.14584 0,-11.44898 -2.61958,-1.7659 -6.37881,-1.22936 -9.36522,-1.22936 m 13.0896,0 v 2.4543 h 2.86334 v -2.4543 h -2.86334 m 15.13484,0 v 2.4543 h 3.2724 v -2.4543 h -3.2724 m 21.27059,0 v 13.9077 h 2.86334 v -13.9077 h -2.86334 m 6.13574,0 1.6362,2.86335 H 169.413 v -2.04525 l -1.6362,-0.40905 0.40905,-0.40905 m -0.8181,0.40905 v 2.4543 h -0.40905 l 0.40905,-2.4543 m 1.22715,0.40905 -0.40905,0.40905 0.40905,-0.40905 m -17.58914,13.0896 v -1.6362 c -3.07755,-0.91385 -3.48074,-5.58064 0,-6.13575 v -2.04525 h -2.4543 v -2.4543 c -4.19834,0.67473 -4.66062,9.06655 -1.83504,11.61563 1.07047,0.96572 2.96183,0.65572 4.28934,0.65587 m 17.18009,-11.86245 0.8181,1.22715 -0.8181,-1.22715 m -52.35837,9.40815 v -8.9991 c 7.01963,0.024 7.01965,8.97508 0,8.9991 m 9.8172,-7.3629 v 9.8172 h 2.86334 v -9.8172 h -2.86334 m 10.63529,8.59005 c -0.60178,3.85344 -3.46538,1.72079 -6.13575,1.6362 0.56723,3.63497 6.17691,4.62372 8.28642,1.59169 1.85908,-2.67207 0.71268,-8.66603 0.71268,-11.81794 l -3.2724,0.8181 c -6.77531,-5.13192 -8.89776,12.73763 0.40905,7.77195 m 4.49955,1.22715 h 2.86335 v -9.8172 c -4.41741,0.14506 -2.86335,6.54304 -2.86335,9.8172 m 11.04434,-6.95385 c 2.12698,-0.0249 4.5238,-1.78947 5.31765,0.8181 -1.35914,0.004 -2.86767,-0.11864 -4.0359,0.71268 -3.92064,2.78995 0.54245,6.9916 4.0359,4.60497 h 0.40905 l 2.86335,0.8181 c 0,-2.50056 0.68516,-6.29597 -0.85472,-8.44928 -2.03942,-2.85186 -6.73924,-1.36377 -7.73533,1.49543 m -17.18167,-0.74614 c 2.37317,0.30728 2.15685,5.49822 -0.37086,5.17372 -2.37139,-0.30443 -2.04725,-5.48682 0.37086,-5.17372 m 22.49932,3.20044 c -0.35971,4.71491 -4.71493,0.35973 0,0 z"
       id="path6" /></g></svg>
