<?xml version="1.0" encoding="UTF-8" standalone="no"?>
<!-- Created with Inkscape (http://www.inkscape.org/) -->

<svg
   width="724.42114mm"
   height="91.113159mm"
   viewBox="0 0 724.42114 91.113156"
   version="1.1"
   id="svg1"
   xml:space="preserve"
   inkscape:version="1.3 (0e150ed6c4, 2023-07-21)"
   sodipodi:docname="hik.svg"
   xmlns:inkscape="http://www.inkscape.org/namespaces/inkscape"
   xmlns:sodipodi="http://sodipodi.sourceforge.net/DTD/sodipodi-0.dtd"
   xmlns="http://www.w3.org/2000/svg"
   xmlns:svg="http://www.w3.org/2000/svg"><sodipodi:namedview
     id="namedview1"
     pagecolor="#ffffff"
     bordercolor="#000000"
     borderopacity="0.25"
     inkscape:showpageshadow="2"
     inkscape:pageopacity="0.0"
     inkscape:pagecheckerboard="0"
     inkscape:deskcolor="#d1d1d1"
     inkscape:document-units="mm"
     inkscape:zoom="0.24476185"
     inkscape:cx="1029.5722"
     inkscape:cy="-189.98058"
     inkscape:window-width="2560"
     inkscape:window-height="1334"
     inkscape:window-x="-11"
     inkscape:window-y="-11"
     inkscape:window-maximized="1"
     inkscape:current-layer="layer1" /><defs
     id="defs1" /><g
     inkscape:label="Layer 1"
     inkscape:groupmode="layer"
     id="layer1"
     transform="translate(372.67905,40.104085)"><g
       id="Hikvision%20Logo-R备份"
       style="fill:none;fill-rule:nonzero;stroke:none;stroke-width:1"
       transform="matrix(3.6298695,0,0,3.6298695,-372.97784,-40.159017)"><g
         id="分组"><path
           d="M 111.08382,11.752599 C 107.64718,7.2861994 110.4253,0.32931975 116.7018,0.24698981 h 12.7588 L 128.30819,3.354945 h -6.74982 c -1.31703,0 -2.26365,0 -3.56011,0 -1.70803,0.020582 -2.67523,2.1199958 -1.70803,3.3961099 1.58456,2.4493156 4.30095,4.1576621 5.9884,6.6687251 3.68359,4.960378 -0.0412,11.423279 -5.53567,11.423279 h -14.01409 l 1.1524,-3.107956 h 7.61412 c 1.31704,0 2.16077,0 3.43664,0 1.70804,-0.02058 2.65466,-2.119996 1.76977,-3.375527 -1.39935,-2.284656 -3.88937,-4.486982 -5.61798,-6.606977 z M 98.139816,24.884223 c -2.469444,0 -4.506735,0 -6.9556,0 L 100.25942,0.2675723 h 6.9556 z m 34.263534,0 c -2.46944,0 -4.50674,0 -6.97618,0 l 9.07521,-24.6166507 h 6.9556 z M 142.93964,7.7184316 c 2.42829,-5.1250386 7.53181,-7.84192651 12.26491,-7.69784912 h 1.8315 v 0 h 2.49002 c 3.64243,0.16465988 5.84436,3.16970262 6.05014,5.66018322 0.0412,0.596892 0.0206,1.1732016 -0.0412,1.6054337 -0.0617,0.2881548 -0.12347,0.5557271 -0.1852,0.8438819 -0.76142,3.1697027 -1.91382,6.3805697 -3.41607,9.2827007 -2.42828,5.125038 -7.5318,7.841926 -12.2649,7.697849 h -1.83151 -0.0206 -2.46945 c -3.64243,-0.16466 -5.84435,-3.169703 -6.02956,-5.660183 -0.0412,-0.596892 -0.0412,-1.152619 0.0412,-1.605434 0.0617,-0.267572 0.12347,-0.555727 0.18521,-0.843882 0.72025,-3.169702 1.87266,-6.38057 3.39548,-9.2827004 z m 13.17037,-5.1456211 v 0 c -2.57234,0.08233 -4.7331,1.5436864 -5.65914,3.951837 L 145.84124,19.05938 c -0.12347,0.288155 -0.18521,0.617475 -0.16463,0.946795 0,0 0,0 0,0 0,1.337861 1.04951,2.449315 2.34597,2.552228 h 0.6791 c 2.57234,-0.08233 4.7331,-1.543687 5.65914,-3.951837 l 4.58905,-12.5347331 c 0.12347,-0.2881548 0.18521,-0.6174746 0.16463,-0.9467943 0,0 0,0 0,0 0,-1.3378615 -1.04951,-2.4493156 -2.36655,-2.5522281 z M 82.006116,17.186374 93.3244,0.2675723 h 4.095161 L 81.594542,23.855099 v 0 c -0.411574,0.617475 -1.090671,1.008542 -1.872662,1.049707 h -0.144051 c -0.02058,0 -0.06174,0 -0.08231,0 0,0 0.02058,0 0.02058,0 h -0.24695 -2.428287 -1.193564 L 73.7129,0.28815478 h 6.9556 z m 90.896114,-8.9739628 -0.0206,-0.3087372 -6.2765,16.959967 h -3.5807 L 172.1408,0.24698981 h 4.54789 L 183.2533,16.877637 189.40633,0.24698981 h 3.60127 L 183.89125,24.863641 h -3.29259 c -0.90546,-0.04116 -1.68745,-0.617475 -2.03729,-1.420191 z"
           id="形状"
           fill="#6d6e71" /><path
           d="m 35.848094,24.884223 c -2.469444,0 -4.938888,0 -7.408332,0 L 37.535547,0.2675723 h 0.205787 6.976179 0.205787 z M 13.046895,9.7355151 h 8.807683 L 25.352957,0.24698981 H 32.74071 L 24.221129,23.36112 v 0 c 0,0 0,0.02058 -0.02058,0.02058 -0.349838,0.864464 -1.172986,1.461357 -2.160763,1.481939 -1.934398,0 -3.848217,0 -5.782615,0 L 20.599278,13.09046 H 11.812173 L 7.4700678,24.863641 c -2.4694439,0 -4.9183091,0 -7.387753,0 L 9.1575211,0.24698981 H 16.545274 Z M 53.854455,9.5091078 65.913573,0.24698981 h 5.515092 L 59.102024,9.7149326 66.92193,24.863641 h -6.276504 c 0.02058,0 0.04116,0 0.06174,-0.02058 -0.967198,0.06175 -1.852083,-0.49398 -2.263657,-1.317279 0,0 0,-0.02058 -0.02058,-0.02058 v 0.02058 l -4.897731,-9.509108 -1.852083,1.420191 -3.4778,9.44736 c -2.469444,0 -4.938888,0 -7.387753,0 L 49.882767,0.2675723 h 7.387752 z"
           id="path1"
           fill="#d71820" /></g><path
         d="M 195.70343,4.3429042 V 1.2143666 h 1.37877 c 0.2881,0 0.49389,0.020582 0.63794,0.08233 0.14405,0.061748 0.26752,0.1646599 0.34984,0.2881548 0.0823,0.1440774 0.12347,0.3087372 0.12347,0.4733971 0,0.2264074 -0.0617,0.4116497 -0.20579,0.5557271 -0.14405,0.1440774 -0.37041,0.2469898 -0.65851,0.2881548 0.10289,0.061747 0.1852,0.1029124 0.24694,0.1646599 0.12347,0.1029124 0.22637,0.2469898 0.34984,0.4116497 l 0.53504,0.8438818 h -0.51446 l -0.41158,-0.6586395 c -0.12347,-0.1852423 -0.22636,-0.3293197 -0.30868,-0.4322322 -0.0823,-0.1029124 -0.14405,-0.1646598 -0.20579,-0.2058248 -0.0617,-0.041165 -0.12347,-0.061748 -0.1852,-0.08233 -0.0412,0 -0.12348,-0.020582 -0.22637,-0.020582 H 196.115 v 1.3996089 h -0.41157 z M 196.115,2.593393 h 0.88489 c 0.1852,0 0.32926,-0.020582 0.45273,-0.061747 0.10289,-0.041165 0.18521,-0.1029125 0.24694,-0.1852424 0.0617,-0.08233 0.0823,-0.1852423 0.0823,-0.2881548 0,-0.1440774 -0.0617,-0.2675723 -0.16463,-0.3704847 -0.1029,-0.1029124 -0.26753,-0.1440774 -0.51447,-0.1440774 H 196.115 Z"
         id="path2"
         fill="#6d6e71" /><path
         d="m 196.99989,0.16465987 c -1.46109,0 -2.65466,1.19378413 -2.65466,2.65514053 0,1.4613563 1.19357,2.6551404 2.65466,2.6551404 1.46108,0 2.65465,-1.1937841 2.65465,-2.6551404 0,-1.4613564 -1.19357,-2.65514053 -2.65465,-2.65514053 z m 0,5.00154373 c -1.29646,0 -2.34598,-1.0497067 -2.34598,-2.3464032 0,-1.2966966 1.04952,-2.34640326 2.34598,-2.34640326 1.29645,0 2.34597,1.04970666 2.34597,2.34640326 0,1.2966965 -1.04952,2.3464032 -2.34597,2.3464032 z"
         id="path3"
         fill="#6d6e71" /></g></g></svg>
