<?xml version="1.0" encoding="UTF-8" standalone="no"?>
<!-- Created with Inkscape (http://www.inkscape.org/) -->

<svg
   width="223.76343mm"
   height="52.697906mm"
   viewBox="0 0 223.76343 52.697905"
   version="1.1"
   id="svg1"
   xml:space="preserve"
   inkscape:version="1.3 (0e150ed6c4, 2023-07-21)"
   sodipodi:docname="hikvision.svg"
   xmlns:inkscape="http://www.inkscape.org/namespaces/inkscape"
   xmlns:sodipodi="http://sodipodi.sourceforge.net/DTD/sodipodi-0.dtd"
   xmlns="http://www.w3.org/2000/svg"
   xmlns:svg="http://www.w3.org/2000/svg"><sodipodi:namedview
     id="namedview1"
     pagecolor="#ffffff"
     bordercolor="#000000"
     borderopacity="0.25"
     inkscape:showpageshadow="2"
     inkscape:pageopacity="0.0"
     inkscape:pagecheckerboard="0"
     inkscape:deskcolor="#d1d1d1"
     inkscape:document-units="mm"
     inkscape:zoom="0.97904742"
     inkscape:cx="431.03122"
     inkscape:cy="241.56133"
     inkscape:window-width="2560"
     inkscape:window-height="1334"
     inkscape:window-x="-11"
     inkscape:window-y="-11"
     inkscape:window-maximized="1"
     inkscape:current-layer="layer1" /><defs
     id="defs1"><clipPath
       clipPathUnits="userSpaceOnUse"
       id="clipPath1"><rect
         style="fill:#ffffff;stroke-width:0.264583"
         id="rect2"
         width="223.76343"
         height="52.697906"
         x="-9.1321535"
         y="84.557144" /></clipPath><clipPath
       clipPathUnits="userSpaceOnUse"
       id="clipPath4"><rect
         style="fill:#ffffff;stroke-width:0.264583"
         id="rect4"
         width="248.89627"
         height="77.290268"
         x="-36.697212"
         y="129.95842" /></clipPath><clipPath
       clipPathUnits="userSpaceOnUse"
       id="clipPath5"><rect
         style="fill:#aa0000;stroke-width:0.264583"
         id="rect6"
         width="217.81802"
         height="31.078253"
         x="-21.563454"
         y="157.25323" /></clipPath></defs><g
     inkscape:label="Layer 1"
     inkscape:groupmode="layer"
     id="layer1"
     transform="translate(9.1321535,-84.557144)"><path
       style="fill:#aa0000;stroke:none"
       d="m 145.48334,158.6522 c -7.89472,1.4209 -11.271,8.01885 -13.58194,14.95835 -1.18638,3.56253 -2.23257,7.58473 0.92787,10.49616 2.62954,2.42238 8.53625,2.15004 11.86032,1.55177 7.78633,-1.40138 11.1385,-8.13215 13.40556,-14.95834 1.14132,-3.43654 2.12361,-7.34549 -0.79171,-10.23178 -2.6574,-2.63093 -8.3654,-2.43794 -11.8201,-1.81616 m 46.30617,0.0737 c -2.99106,1.16334 -1.15461,5.80012 1.84391,4.63388 2.99103,-1.16332 1.15463,-5.80012 -1.84391,-4.63388 m -213.258253,27.05548 c 1.803597,0 6.293025,0.8221 7.751721,-0.27193 0.753441,-0.56508 0.968813,-2.06498 1.297806,-2.90307 0.9534,-2.42871 1.75433,-7.68176 3.7613295,-9.36535 1.6915031,-1.41893 7.2499771,-0.42423 9.41414408,-0.42423 l -4.49791698,12.96458 c 2.128512,0 5.877001,0.7191 7.644335,-0.66513 1.797486,-1.40784 2.195266,-4.71182 2.992689,-6.7432 2.404545,-6.12539 5.9749594,-13.10302 7.0900594,-19.57916 l -7.5994234,0.15964 -1.346393,2.48619 -2.69585,7.67292 h -9.789583 l 3.704166,-10.31875 c -1.89167,0 -6.2300681,-0.81309 -7.8054136,0.27193 -1.573286,1.08359 -2.066928,4.89541 -2.727902,6.60723 -1.557856,4.0346 -2.940974,8.1386 -4.497917,12.17083 -0.957275,2.4792 -2.430311,5.28797 -2.695851,7.9375 m 30.9562506,0 c 1.8514094,0 6.2425054,0.81619 7.7658054,-0.27193 1.546922,-1.10498 2.03356,-4.89584 2.711979,-6.60723 1.524156,-3.84487 2.800051,-7.78588 4.288865,-11.64167 1.035019,-2.68053 2.534733,-5.62446 2.960434,-8.46666 -1.873049,0 -6.25236,-0.8166 -7.802556,0.27193 -1.492124,1.04774 -2.278737,5.42861 -2.871829,7.1364 -2.250181,6.47933 -5.504957,12.88896 -7.0526984,19.57916 m 13.7583334,0 c 1.90101,0 5.951328,0.77141 7.568797,-0.27193 1.054724,-0.68034 1.302827,-2.59798 1.705706,-3.69682 1.085354,-2.96025 1.73728,-6.11549 4.48383,-7.9375 1.27787,3.06933 3.464736,9.17226 6.134413,11.1911 1.767608,1.33668 6.390816,1.04968 8.417671,0.45057 l -8.466667,-16.66875 8.466667,-6.23771 4.497916,-3.81645 -5.55625,0.14923 -4.233333,2.96371 -8.73125,6.67664 3.439583,-9.78958 c -1.957325,0 -6.170053,-0.801 -7.83338,0.27193 -1.524636,0.98346 -2.16213,4.95532 -2.79997,6.60723 -1.788832,4.63279 -3.564576,9.31915 -5.153658,14.02292 -0.678229,2.00759 -1.753947,3.95354 -1.940075,6.08541 m 35.983333,-26.98749 2.116667,26.72291 c 1.648454,0 4.105757,0.45698 5.552374,-0.46098 2.275596,-1.44399 3.825719,-5.0072 5.295543,-7.21194 2.706851,-4.06027 5.402213,-8.13015 8.13471,-12.17083 1.451348,-2.14618 3.509402,-4.39593 4.300702,-6.87916 l -3.92281,0.27193 -4.028154,5.5489 -8.188615,12.43541 h -0.264583 c -1.34601,-5.65353 -1.467668,-12.45146 -1.5875,-18.25624 h -7.408334 m 19.314583,26.72291 h 7.408333 c 2.14484,-9.05095 8.16512,-17.51508 9.525,-26.72291 -1.76254,0 -5.54199,-0.7186 -7.0329,0.27193 -1.48387,0.98586 -2.31411,5.2127 -2.8902,6.87182 -2.1739,6.2608 -6.04331,13.03207 -7.010233,19.57916 m 12.435413,0 c 5.25711,0 12.45636,1.27357 17.4625,-0.35972 3.85101,-1.25641 6.19071,-5.50568 4.96869,-9.42986 -1.05074,-3.37421 -3.99283,-5.38225 -6.21504,-7.9375 -0.91043,-1.04688 -2.29506,-2.4481 -1.73102,-3.96752 0.72443,-1.9515 2.85505,-1.85321 4.56487,-1.85331 3.90463,-2.5e-4 8.69568,1.44119 9.78959,-3.175 -4.86153,0 -11.20651,-1.07487 -15.875,0.32011 -4.30887,1.28752 -6.4591,5.78089 -5.08384,9.99864 1.01465,3.1118 4.2199,5.40683 6.17177,7.93749 0.8027,1.04074 1.93984,2.31527 1.24494,3.70009 -0.96321,1.9195 -3.18946,1.59158 -4.97871,1.59158 -2.05072,0 -7.42489,-0.96538 -9.07464,0.27193 -0.75094,0.56321 -0.96748,2.05291 -1.24411,2.90307 m 24.60625,0 c 1.74412,0 5.79795,0.75755 7.23664,-0.27193 1.61048,-1.1524 2.2487,-5.32977 2.93002,-7.1364 2.39338,-6.34637 5.24453,-12.76868 7.03126,-19.31458 l -7.23664,0.27193 -2.8308,6.87182 -7.13048,19.57916 m 41.275,0 3.51922,-0.27193 1.98702,-4.75515 5.0771,-13.22917 c 1.47744,4.53287 3.25891,9.04399 4.97707,13.49375 0.58036,1.50303 1.03737,3.91068 2.69993,4.56611 1.03878,0.40951 3.69322,0.55971 4.43442,-0.41689 1.63062,-2.14849 2.30643,-5.85784 3.24768,-8.38255 2.07609,-5.5687 5.45742,-11.85637 6.33673,-17.72708 l -3.56923,0.42423 -1.98702,4.86743 -4.7625,12.7 c -2.27732,-4.00158 -3.53451,-8.71228 -5.28881,-12.96458 -0.53377,-1.29381 -0.99947,-3.9655 -2.22365,-4.75515 -1.08769,-0.70162 -4.25631,-0.58342 -4.9693,0.56101 -1.86299,2.99026 -2.69774,7.23446 -3.93568,10.54414 -1.82255,4.87263 -4.66151,10.22672 -5.54298,15.34583 m 35.4554,-26.59654 c 2.64979,-0.56906 3.50142,3.66514 0.7915,4.24517 -2.69035,0.57584 -3.47344,-3.66921 -0.7915,-4.24517 m -0.5304,0.93196 v 2.64583 h 0.26459 l 0.26458,-1.32291 1.5875,1.32291 c -0.35054,-1.57602 -0.27062,-2.58522 -2.11667,-2.64583 m 1.5875,0.52917 v 0.26458 l -1.05833,0.26458 v -0.79375 l 1.05833,0.26459 m -45.50833,0.87337 c 2.12947,-0.31711 4.5087,0.26064 4.4824,2.83079 -0.0215,2.0964 -1.22911,4.15152 -1.91802,6.08542 -1.77354,4.97859 -2.96377,12.64737 -9.44355,13.09197 -3.47123,0.23817 -3.64675,-2.94303 -2.82222,-5.41906 1.63069,-4.89695 3.63172,-15.68525 9.70139,-16.58912 M 31.183341,259.60013 c -2.869398,0.82661 -5.59466,2.36648 -8.466667,3.30239 -5.34434,1.74159 -12.108829,2.0676 -17.4625004,0.21763 -2.422922,-0.83725 -4.87673902,-2.00084 -6.879166,-3.61944 -14.0812496,-11.38217 -4.21209,-31.5926 7.672916,-40.18462 11.8706104,-8.58159 32.5969124,-13.26101 41.8876654,1.65488 1.372655,2.20374 2.347466,5.06752 2.538451,7.67291 0.514407,7.01748 -1.811525,13.98708 -5.998043,19.57917 -1.510833,2.01808 -3.639232,3.4959 -5.090573,5.55625 5.671133,0.24349 10.601259,0.42064 15.345834,-3.31199 4.979581,-3.91751 6.284467,-9.495 8.13471,-15.20884 2.854687,-8.81575 6.462202,-17.68548 8.53404,-26.72292 h -8.73125 l -3.590455,0.27194 -1.89189,5.01973 -4.307239,14.02291 C 50.557538,221.69626 50.015,216.36308 44.147924,212.18194 38.199378,207.94275 30.851921,207.064 23.775008,207.722 c -19.1310274,1.77876 -41.640496,19.85618 -39.642586,40.76563 1.481936,15.50945 16.55335958,21.47849 30.382169,19.57917 4.220406,-0.57966 8.278415,-2.02226 12.170833,-3.70417 2.518435,-1.08821 4.495644,-1.81393 4.497917,-4.7625 m 46.566666,-51.32916 c -2.402978,10.48189 -6.355983,21.03287 -9.7906,31.22083 -1.599773,4.74535 -3.826414,9.8416 -4.496899,14.81666 h 8.73125 c 0.988505,0 2.718608,0.32563 3.569226,-0.27193 1.234267,-0.86707 1.431607,-3.92174 1.906384,-5.28432 1.65543,-4.75092 2.433984,-10.88313 5.246142,-15.08104 1.61659,-2.4132 8.58019,-6.61469 9.27083,-1.05854 0.35509,2.85668 -2.20337,7.87772 -3.21155,10.58334 -1.26002,3.38151 -2.99362,7.51705 -3.28728,11.11249 h 8.73125 c 0.9885,0 2.71861,0.32563 3.56922,-0.27193 0.80626,-0.56639 0.92381,-2.03235 1.20084,-2.90307 0.75507,-2.37327 1.47343,-4.79194 2.29305,-7.14374 1.25009,-3.58698 2.41024,-7.21678 3.52675,-10.84792 0.64511,-2.09802 1.60224,-4.38173 1.23023,-6.61458 -1.7123,-10.27759 -15.80129,-6.10843 -20.81593,-1.32292 l 5.02709,-16.93333 H 77.750007 M 4.9895906,229.9668 c 2.762004,0.935 8.7567294,2.02449 11.5967534,1.2388 1.083804,-0.29982 1.802268,-1.49192 2.690747,-2.12851 1.953272,-1.3995 6.943597,-2.67504 8.448701,0.1523 1.696279,3.18648 -6.439703,4.19635 -8.184118,4.54733 -5.226433,1.05154 -11.8970294,1.38054 -16.1395834,4.97767 -4.765885,4.04086 -6.593016,12.87637 1.058333,14.98306 6.1460604,1.69222 12.6093324,-0.47723 17.7270844,-3.9269 -0.233594,1.01699 -0.383661,2.48607 0.64002,3.16765 0.834333,0.55551 2.374347,0.27193 3.32873,0.27193 h 8.466666 c 5.57e-4,-5.10911 2.565852,-11.09867 4.345617,-15.875 1.335101,-3.58298 2.811335,-7.56124 1.541362,-11.37708 -1.602793,-4.81583 -6.579984,-5.52662 -10.914062,-5.84431 -9.429996,-0.69124 -19.524575,0.69445 -24.6062504,9.81306 m 148.6958294,0 c 2.65256,0.89796 8.96932,2.14822 11.64167,1.16327 1.8707,-0.68949 2.99667,-2.58927 5.02708,-3.22154 1.65089,-0.5141 5.11838,-0.53878 6.05419,1.32086 1.62146,3.22217 -6.63044,4.23933 -8.43544,4.60041 -5.66511,1.13325 -12.51606,1.49055 -16.90966,5.70793 -4.1183,3.95315 -4.85173,12.0001 1.56383,14.10397 5.7927,1.89962 13.36026,-0.0253 17.99167,-3.83115 l 0.71515,3.16765 3.2536,0.27193 h 8.73125 c -0.39877,-5.23602 2.83409,-12.23977 4.61306,-17.19791 1.16212,-3.23895 2.41109,-6.64844 1.18389,-10.05417 -1.76739,-4.9049 -6.58461,-5.52885 -11.08862,-5.84452 -8.95703,-0.62778 -19.95088,0.53169 -24.34167,9.81327 m -26.19375,19.31458 -1.05833,3.96875 h 12.7 l 7.60554,-23.8125 2.97779,-9.26041 h -8.99583 c -0.95852,0 -2.70605,-0.33154 -3.51921,0.27193 -1.28127,0.95086 -1.59177,4.09582 -2.04379,5.5489 -1.38782,4.46131 -2.43209,10.2761 -4.81516,14.2875 -1.44447,2.43145 -8.88609,7.31599 -9.57992,1.5875 -0.14011,-1.15677 0.55994,-2.36803 0.90052,-3.43958 0.86702,-2.7279 1.82788,-5.45329 2.61603,-8.20209 0.95255,-3.32221 2.48468,-6.61797 2.94778,-10.05416 h -8.73125 c -0.98849,0 -2.71862,-0.32563 -3.56923,0.27193 -0.80285,0.56401 -0.92982,2.03356 -1.20002,2.90307 -0.7694,2.47585 -1.59612,4.93803 -2.38206,7.40833 -1.68255,5.28845 -5.56475,12.32385 -4.35336,17.99166 2.03522,9.5224 15.9212,4.8735 20.5005,0.52917 m -42.06875,-24.07708 -0.26458,0.26458 0.26458,-0.26458 m -59.795829,12.7 c -1.145214,4.06566 -3.236559,7.74592 -7.672917,8.81679 -1.880037,0.45381 -5.22661,0.95932 -5.705893,-1.67406 -0.318787,-1.75157 1.139841,-3.13125 2.531095,-3.88199 3.20989,-1.73209 7.349108,-2.26793 10.847715,-3.26074 m 148.431249,0.26458 c -0.5713,4.22187 -3.75794,7.77179 -7.9375,8.67531 -1.30234,0.28154 -3.00707,0.64462 -4.19802,-0.17108 -1.44054,-0.98665 -1.18812,-3.0393 -0.18905,-4.24333 1.55546,-1.87456 4.51492,-2.42248 6.76832,-2.93512 1.85615,-0.42227 3.65194,-1.17023 5.55625,-1.32578 M 39.120841,261.45221 h 2.38125 c 0,1.13414 -0.659957,7.23336 1.034651,7.02044 1.498512,-0.18828 0.817432,-5.83655 0.817432,-7.02044 h 2.38125 v -1.5875 c -1.926634,0 -6.41533,-0.96995 -6.614583,1.5875 m 8.202083,-1.5875 v 6.08542 l 0.424231,2.3739 5.925769,0.27193 v -1.5875 h -4.497916 v -2.11666 c 1.649899,0 3.802901,0.54117 3.96875,-1.5875 h -3.96875 v -1.85209 h 4.233333 v -1.5875 h -6.085417 m 15.08125,6.08542 -1.852083,-0.52917 c -2.213867,4.03398 -6.288384,-1.87472 -2.6344,-3.69273 1.568541,-0.78042 2.683791,1.25916 4.486483,0.51773 -2.080897,-3.99754 -7.994877,-2.46027 -7.866865,2.11667 0.127318,4.55201 6.176561,5.89193 7.866865,1.5875 m 1.5875,-6.08542 v 8.73125 c 2.287942,-0.0751 1.852084,-1.88207 1.852084,-3.70416 h 3.439583 c 0,1.82209 -0.435842,3.62903 1.852083,3.70416 v -8.73125 c -2.1949,0.0721 -1.852083,1.6571 -1.852083,3.43959 h -3.439583 c 0,-1.78249 0.342808,-3.36751 -1.852084,-3.43959 m 10.847917,3.43959 h 0.264583 c 0.334557,0.88241 0.814752,1.61015 1.360075,2.38125 0.426565,0.60316 0.80822,1.25276 1.259428,1.83656 0.440234,0.56961 1.467207,1.4679 2.135649,0.6484 1.211126,-1.48484 0.755187,-8.14445 -1.315569,-8.3058 v 5.29167 c -1.360592,-1.12449 -2.677396,-4.9667 -4.493831,-5.16835 -1.219951,-0.13544 -1.060828,1.48579 -1.062419,2.25793 -0.0032,1.55335 -0.535093,4.32974 0.159648,5.73652 1.094467,2.21618 1.692395,-1.69798 1.692436,-2.29693 v -2.38125 m 9.789789,-3.29198 c -5.100629,1.34271 -3.061074,9.76372 2.38104,8.44258 5.19301,-1.26068 3.02348,-9.8653 -2.38104,-8.44258 m 15.61041,-0.007 c -5.25148,1.28063 -3.12736,9.88798 2.38105,8.44258 5.13594,-1.34766 2.94664,-9.74179 -2.38105,-8.44258 m 13.22897,8.06102 1.05833,0.52916 v -4.7625 h -3.43958 v 1.5875 h 2.38125 c -2.31973,4.702 -7.45652,-2.23791 -3.17092,-3.80808 1.63878,-0.60042 2.58516,1.20874 4.22925,0.63308 -3.65417,-8.2793 -12.6142,5.57792 -3.96875,6.32122 1.01954,0.0876 1.95266,-0.19677 2.91042,-0.50038 m 1.85208,-8.20209 2.38267,4.7625 0.34727,3.13581 1.15981,0.65778 0.68085,-2.99984 2.83773,-5.55625 c -2.26494,0.0268 -2.63696,1.6084 -3.96875,3.175 -0.73461,-1.70479 -1.43975,-3.10992 -3.43958,-3.175 m -18.52083,8.73125 v -1.5875 h -3.70417 v -2.91041 l -2e-4,-1.85209 c -0.005,-0.74493 -0.81495,-3.27959 -1.69223,-1.50318 -0.54645,1.10649 -0.65867,6.45555 0.11228,7.42895 0.78923,0.99649 4.11254,0.42423 5.28432,0.42423 m -11.63758,-7.02799 c 3.24356,-0.8693 4.31903,4.51989 1.31474,5.32474 -3.22487,0.86395 -4.1763,-4.55782 -1.31474,-5.32474 m 15.61041,0 c 3.18303,-0.85166 4.09597,4.5794 1.31475,5.32474 -3.29689,0.88353 -4.37544,-4.50581 -1.31475,-5.32474 z"
       id="path2"
       clip-path="url(#clipPath5)"
       transform="translate(16.21474,-61.616014)" /></g></svg>
